<svg width="24" height="28" viewBox="0 0 24 28" fill="none" xmlns="http://www.w3.org/2000/svg">
<path d="M12 11.2085C11.6256 11.2085 11.2665 11.3551 11.0018 11.6161C10.737 11.8771 10.5883 12.2311 10.5883 12.6002V15.3835C10.5883 15.7526 10.737 16.1065 11.0018 16.3675C11.2665 16.6285 11.6256 16.7751 12 16.7751C12.3744 16.7751 12.7335 16.6285 12.9982 16.3675C13.263 16.1065 13.4117 15.7526 13.4117 15.3835V12.6002C13.4117 12.2311 13.263 11.8771 12.9982 11.6161C12.7335 11.3551 12.3744 11.2085 12 11.2085ZM23.943 10.7632C23.7558 8.72383 23.0349 6.76733 21.8506 5.08505C20.6664 3.40278 19.0595 2.05236 17.187 1.16591C15.3146 0.27946 13.2408 -0.112661 11.1686 0.0279102C9.09634 0.168482 7.0966 0.836931 5.365 1.96786C3.88157 2.94571 2.63625 4.23529 1.71848 5.74398C0.800723 7.25267 0.233304 8.94302 0.0569895 10.6936C-0.115969 12.4327 0.105939 14.1879 0.706613 15.832C1.30729 17.476 2.27167 18.9676 3.52978 20.1986L11.0118 27.5884C11.143 27.7188 11.2992 27.8223 11.4712 27.893C11.6432 27.9636 11.8278 28 12.0141 28C12.2005 28 12.385 27.9636 12.557 27.893C12.7291 27.8223 12.8852 27.7188 13.0164 27.5884L20.4702 20.1986C21.7283 18.9676 22.6927 17.476 23.2934 15.832C23.8941 14.1879 24.116 12.4327 23.943 10.6936V10.7632ZM18.4938 18.2364L12 24.638L5.50617 18.2364C4.54916 17.2929 3.81608 16.1521 3.35962 14.8961C2.90317 13.64 2.73469 12.2998 2.86628 10.9719C2.99872 9.62354 3.43345 8.32102 4.13903 7.15854C4.84461 5.99606 5.80341 5.00267 6.9461 4.25019C8.44384 3.26939 10.2019 2.74621 12 2.74621C13.7981 2.74621 15.5562 3.26939 17.0539 4.25019C18.1931 4.99976 19.1498 5.98876 19.8552 7.14615C20.5606 8.30353 20.9972 9.60057 21.1337 10.9441C21.2696 12.2765 21.1032 13.622 20.6467 14.8832C20.1901 16.1445 19.4547 17.2898 18.4938 18.2364ZM13.2988 7.82676C13.2706 7.74126 13.2276 7.66122 13.1717 7.59017L13.0023 7.38142C12.8338 7.22367 12.6283 7.10937 12.4042 7.04868C12.1801 6.98799 11.9443 6.98278 11.7177 7.03351H11.4636L11.2094 7.15876L10.9977 7.33967L10.8283 7.54842C10.7724 7.61947 10.7294 7.69951 10.7012 7.78501C10.6582 7.86788 10.6296 7.95725 10.6165 8.04942C10.5931 8.17327 10.5837 8.29928 10.5883 8.42517C10.5834 8.61222 10.622 8.79788 10.7012 8.96792C10.7731 9.13217 10.8735 9.28285 10.9977 9.41325C11.1321 9.54329 11.2901 9.64716 11.4636 9.71942C11.8091 9.84884 12.1909 9.84884 12.5364 9.71942C12.708 9.64377 12.8655 9.54028 13.0023 9.41325C13.1265 9.28285 13.2269 9.13217 13.2988 8.96792C13.3729 8.79629 13.4113 8.61172 13.4117 8.42517C13.4186 8.33716 13.4186 8.24876 13.4117 8.16076C13.3986 8.04278 13.3601 7.92891 13.2988 7.82676Z" fill="#262730"/>
</svg>
