<svg width="30" height="27" viewBox="0 0 30 27" fill="none" xmlns="http://www.w3.org/2000/svg">
<path fill-rule="evenodd" clip-rule="evenodd" d="M16.0938 26.0596C16.7621 25.4978 17.4721 24.9192 18.2039 24.3228C23.5247 19.9867 30 14.7097 30 8.10097C30.0004 5.92659 29.1264 3.84337 27.5748 2.32001C26.0231 0.796662 23.9241 -0.0388756 21.75 0.00139078C19.8498 -0.00869998 18.0138 0.583076 16.4924 1.6654L16.0938 26.0596ZM12.8531 1.24135C11.4727 0.429668 9.88511 -0.00729218 8.25 0.00139078C6.07588 -0.0388756 3.97686 0.796662 2.42522 2.32001C0.873578 3.84337 -0.000372411 5.92659 1.19047e-07 8.10097C1.19047e-07 14.6606 6.3779 19.8752 11.6698 24.2018C12.2725 24.6947 12.8612 25.176 13.4248 25.6465L12.8531 1.24135Z" fill="#F6EDEE"/>
</svg>
