<svg width="46" height="52" viewBox="0 0 46 52" fill="none" xmlns="http://www.w3.org/2000/svg">
<path d="M0 36.2615V16.6958C0 15.3282 0.698708 14.0554 1.8525 13.3211L19.9217 1.82258C21.1961 1.01159 22.8186 0.987702 24.1164 1.76082L43.5472 13.3366C44.7581 14.058 45.5 15.3635 45.5 16.773V36.1848C45.5 37.617 44.7343 38.9399 43.4925 39.6532L24.0598 50.8167C22.7901 51.5461 21.2233 51.5234 19.9753 50.7576L1.90794 39.6708C0.722482 38.9433 0 37.6523 0 36.2615Z" fill="#FB8574"/>
<path d="M23.4973 15.7026L33.7811 25.8467H32.6H32.1V26.3467V35.8163C32.1 36.1875 31.7931 36.5 31.4 36.5H25.9V28.7141V28.2141H25.4H20.6H20.1V28.7141V36.5H14.6C14.2069 36.5 13.9 36.1875 13.9 35.8163V26.3467V25.8467H13.4H12.2189L22.5027 15.7026C22.5027 15.7026 22.5027 15.7026 22.5027 15.7025C22.7766 15.4325 23.2234 15.4325 23.4973 15.7025C23.4973 15.7026 23.4973 15.7026 23.4973 15.7026Z" stroke="white"/>
</svg>
