<svg width="22" height="23" viewBox="0 0 22 23" fill="none" xmlns="http://www.w3.org/2000/svg">
<path d="M0.369096 14.0128L1.98468 12.5177M0.369096 14.0128C-0.0224326 14.3779 -0.113212 14.969 0.150284 15.4376M0.369096 14.0128L0.708689 14.3797L0.709552 14.3789M0.369096 14.0128L0.585433 15.1913M1.98468 12.5177L3.54471 19.5822C3.0368 19.7465 2.48465 19.5296 2.21823 19.0613L0.150284 15.4376M1.98468 12.5177C1.91121 11.8405 1.91121 11.1572 1.98468 10.4799V12.5177ZM0.150284 15.4376L0.584545 15.1898L0.585433 15.1913M0.150284 15.4376L0.586109 15.1925L2.65249 18.8134L2.65285 18.814C2.8037 19.0793 3.11157 19.1968 3.39083 19.1065L3.39102 19.1064L5.47371 18.4337L5.71968 18.3542L5.92673 18.5089C6.43798 18.891 6.98938 19.2142 7.57076 19.4726L7.80364 19.5761L7.85673 19.8253L8.31786 21.9905L7.82917 22.0961L8.31816 21.9919L8.31798 21.9911C8.38344 22.293 8.64429 22.5 8.9368 22.5H13.0632M0.585433 15.1913C0.435274 14.923 0.48855 14.5855 0.709552 14.3789M0.585433 15.1913L0.709552 14.3789M13.0632 22.5L13.0636 23V22.5H13.0632ZM13.0632 22.5C13.3555 22.4998 13.6162 22.2926 13.6814 21.9905L13.6815 21.9902L14.1497 19.8294L14.2034 19.5817L14.4349 19.4786C14.7323 19.346 15.0222 19.1968 15.3034 19.0315C15.5706 18.874 15.8293 18.7018 16.0783 18.5158L16.2853 18.3612L16.5312 18.4405L18.6148 19.1132C18.6149 19.1132 18.6149 19.1133 18.615 19.1133C18.894 19.2032 19.2014 19.0857 19.3522 18.8209C19.3522 18.8208 19.3522 18.8208 19.3522 18.8208L21.4143 15.1971C21.4145 15.1968 21.4147 15.1964 21.4149 15.196C21.5652 14.9277 21.5119 14.5902 21.2909 14.3836C21.2907 14.3834 21.2905 14.3832 21.2903 14.383L19.6762 12.8893L19.4915 12.7185L19.5187 12.4684C19.5882 11.827 19.5882 11.1799 19.5187 10.5385L19.4915 10.2884L19.6762 10.1176L21.2903 8.62387C21.2905 8.62372 21.2907 8.62356 21.2908 8.6234C21.5119 8.4168 21.5652 8.07919 21.4149 7.81081C21.4147 7.81046 21.4145 7.81011 21.4143 7.80976L19.3522 4.18608C19.3522 4.18607 19.3522 4.18606 19.3522 4.18605C19.2014 3.92121 18.894 3.80372 18.615 3.89362C18.6149 3.89364 18.6149 3.89365 18.6148 3.89367L16.5312 4.56637L16.2849 4.64588L16.0778 4.4907C15.8324 4.30691 15.5772 4.13729 15.3131 3.98265L15.3106 3.98118L15.3106 3.98117C15.027 3.81287 14.7342 3.66126 14.4335 3.52711L14.202 3.42379L14.1485 3.17593L13.6814 1.01048L13.6813 1.01011C13.6164 0.707894 13.3557 0.500424 13.0633 0.5H8.9371C8.64469 0.500424 8.38406 0.707894 8.3191 1.01011L7.85665 3.17385L7.80308 3.42451L7.5683 3.52734C7.28397 3.65188 7.00629 3.79157 6.73641 3.94583C6.4556 4.1109 6.18412 4.29189 5.92327 4.48794L5.71596 4.64376L5.46917 4.56404L3.38649 3.89129L3.3863 3.89123C3.10703 3.8009 2.79916 3.91844 2.64831 4.18365L2.64826 4.18375L0.585927 7.80779C0.585771 7.80806 0.585616 7.80834 0.585461 7.80861C0.434737 8.07709 0.487905 8.41509 0.709165 8.62185C0.709414 8.62209 0.709663 8.62232 0.709912 8.62255L2.32385 10.1126L2.50893 10.2834L2.48176 10.5339C2.41218 11.1753 2.41218 11.8224 2.48176 12.4638L2.50889 12.7139L2.32427 12.8847L0.710097 14.3784C0.709915 14.3786 0.709733 14.3788 0.709552 14.3789M10.9957 6.4C8.20825 6.4 5.9607 8.69008 5.9607 11.5C5.9607 14.3099 8.20825 16.6 10.9957 16.6C13.7831 16.6 16.0307 14.3099 16.0307 11.5C16.0307 8.69008 13.7831 6.4 10.9957 6.4Z" stroke="#74787B"/>
</svg>
