<svg xmlns="http://www.w3.org/2000/svg" viewBox="0 0 294.03 293.98"><defs><style>.cls-1{fill:#74787b;}</style></defs><g id="Calque_2" data-name="Calque 2"><g id="Calque_1-2" data-name="Calque 1"><path class="cls-1" d="M294,163.56c-1.54,2.47-2.11,5.41-4,7.75-4.27,5.35-9.9,7.57-16.55,7.6s-13.39.06-20.08,0c-1.77,0-2.76.35-3.31,2.2A85.38,85.38,0,0,1,244,195.85a2.45,2.45,0,0,0,.59,3.42c4.87,4.74,9.64,9.57,14.42,14.39,8.91,9,8.9,20.12,0,29.14q-7.88,7.95-15.83,15.82c-8.93,8.88-20.56,8.9-29.45.06-4.68-4.65-9.38-9.29-14-14-1.23-1.26-2.21-1.68-3.89-.77A85.82,85.82,0,0,1,181.07,250c-1.58.5-2,1.24-2,2.84-.08,7.93.53,15.88-.28,23.79a18.49,18.49,0,0,1-18.06,17.08c-9.08.33-18.19.37-27.26,0-10.86-.45-18.21-8.81-18.34-20.25q-.1-10.18,0-20.37c0-1.63-.31-2.55-2.07-3.1a87.7,87.7,0,0,1-14.77-6.11c-1.52-.8-2.46-.61-3.67.65-4.65,4.81-9.43,9.5-14.18,14.22-9,8.92-20.2,9-29.16.13q-8.16-8.07-16.22-16.24c-8.75-8.88-8.71-20.06.08-28.94,4.77-4.82,9.55-9.65,14.41-14.39,1.11-1.09,1.44-1.91.66-3.41a90,90,0,0,1-6.23-15c-.51-1.62-1.3-2-2.87-2-7.93-.09-15.88.52-23.79-.28a18.52,18.52,0,0,1-17-18.1c-.33-9.07-.37-18.18,0-27.25.46-10.86,8.83-18.18,20.28-18.3q10.19-.1,20.37,0c1.67,0,2.55-.38,3.08-2.1A115.26,115.26,0,0,1,51.06,96c-5.37-5.35-10.69-10.69-16.06-16C30.22,75.33,28,69.73,28.8,63a19.15,19.15,0,0,1,5.73-11.26c5.71-5.79,11.41-11.59,17.26-17.23,8.51-8.21,19.65-8.13,28.12.12q7.49,7.32,14.8,14.82c1.12,1.14,2,1.37,3.42.61a91,91,0,0,1,15-6.23c1.65-.51,1.94-1.34,2-2.88.09-7.84-.5-15.69.28-23.51.84-8.49,6-14.43,14.17-16.78.51-.15,1.2.11,1.45-.63h31.57c.19.17.37.45.59.49,8.71,1.62,14.7,7.9,15.58,16.64.79,7.92.19,15.86.29,23.8,0,1.54.32,2.37,2,2.88a90,90,0,0,1,15,6.23c1.48.77,2.32.49,3.42-.63q7.22-7.39,14.6-14.62c8.47-8.32,20.15-8.33,28.64,0q8.29,8.13,16.44,16.43c8.75,8.88,8.69,20-.12,28.93-4.71,4.76-9.41,9.53-14.22,14.18-1.31,1.26-1.61,2.26-.72,3.9a79.25,79.25,0,0,1,6,14.51c.55,1.83,1.5,2.25,3.29,2.23,6.69-.11,13.39-.07,20.09,0a20.84,20.84,0,0,1,14,4.86c3.48,3,5,7,6.54,11.06Zm-127.81-130c0-4.3,0-8.61,0-12.91,0-5.46-2.42-7.86-7.86-7.88q-11.19-.06-22.38,0c-5.61,0-8,2.41-8,8,0,8.51,0,17,0,25.53,0,4.83-1.46,6.89-6,8.14a102.08,102.08,0,0,0-22.42,9.25c-4.29,2.38-6.54,2-10-1.41-6-6-12-12.05-18.07-18.05-4.1-4.08-7.27-4.09-11.33-.06Q52.33,52,44.54,59.78c-4.32,4.34-4.32,7.39,0,11.75q8.8,8.84,17.65,17.65c3.67,3.69,4.06,5.9,1.52,10.44a101.44,101.44,0,0,0-9.06,21.87c-1.4,4.92-3.29,6.28-8.47,6.3-8.42,0-16.84,0-25.25,0-5.65,0-8,2.38-8.07,8q0,11,0,22.09c0,5.81,2.36,8.16,8.15,8.18,8.51,0,17,0,25.54,0,4.76,0,6.77,1.5,8,6.09a99.76,99.76,0,0,0,9.14,22.14c2.46,4.39,2.09,6.71-1.42,10.22q-8.91,8.94-17.86,17.86c-4.2,4.22-4.23,7.39-.09,11.55q7.8,7.83,15.63,15.62c4.19,4.17,7.35,4.18,11.54,0q8.85-8.81,17.66-17.65c3.87-3.86,6-4.23,10.64-1.59a101.54,101.54,0,0,0,21.61,9c5.13,1.48,6.47,3.29,6.48,8.61,0,8.41,0,16.83,0,25.25,0,5.59,2.42,7.95,8.07,8q10.91,0,21.8,0c6,0,8.36-2.3,8.37-8.25,0-8.51,0-17,0-25.53,0-4.62,1.51-6.71,5.9-7.91a103.24,103.24,0,0,0,22.68-9.35c4.06-2.25,6.43-1.85,9.74,1.45,6,6,12,12,18.07,18,4.1,4.08,7.45,4.05,11.59-.08q7.72-7.69,15.42-15.42c4.29-4.3,4.29-7.45,0-11.76-5.87-5.9-11.77-11.76-17.65-17.65-3.69-3.7-4.07-5.87-1.51-10.44a102,102,0,0,0,9.06-21.87c1.4-4.92,3.28-6.29,8.46-6.3,8.33,0,16.65,0,25,0,6,0,8.35-2.31,8.36-8.26q0-10.9,0-21.8c0-5.81-2.36-8.17-8.15-8.18-8.42,0-16.84,0-25.26,0-5.11,0-7-1.4-8.4-6.37a101.44,101.44,0,0,0-8.94-21.61c-2.65-4.73-2.3-6.89,1.48-10.68,5.87-5.89,11.77-11.76,17.64-17.65,4.23-4.24,4.25-7.37.1-11.55Q242,52.09,234.15,44.3c-4.13-4.11-7.43-4.1-11.59,0-6,6-12,12-18.06,18-3.31,3.28-5.63,3.65-9.75,1.36a103.64,103.64,0,0,0-22.68-9.35c-4.36-1.21-5.8-3.31-5.84-8C166.19,42.14,166.22,37.83,166.22,33.53Z"/><path class="cls-1" d="M147.08,89.47a57.45,57.45,0,1,1-57.45,57.38A57.5,57.5,0,0,1,147.08,89.47ZM191.82,147A44.73,44.73,0,1,0,147,191.64,44.93,44.93,0,0,0,191.82,147Z"/></g></g></svg>