<svg width="13" height="21" viewBox="0 0 13 21" fill="none" xmlns="http://www.w3.org/2000/svg">
<path d="M6.2019 4.28531C5.75843 4.28364 5.32238 4.39913 4.93788 4.62011C4.55323 4.84117 4.23383 5.15994 4.01202 5.54415L4.01196 5.54424C3.74579 6.00574 3.3079 6.34324 2.79383 6.4831C2.27984 6.62294 1.73141 6.55384 1.26817 6.2909C1.03704 6.1591 0.834259 5.98288 0.671505 5.77239C0.508711 5.56186 0.389178 5.32119 0.319788 5.06427C0.250399 4.80734 0.232524 4.53922 0.267194 4.27535C0.301864 4.01149 0.388394 3.75709 0.5218 3.5268L0.521984 3.52649C1.09704 2.53046 1.92411 1.70333 2.92008 1.12819C3.91606 0.55306 5.04587 0.250184 6.19597 0.25C7.34608 0.249816 8.47599 0.552329 9.47215 1.12714C10.4683 1.70196 11.2956 2.52883 11.871 3.52467C12.4464 4.52051 12.7495 5.65024 12.75 6.80035C12.7505 7.95046 12.4482 9.08043 11.8736 10.0767C11.2991 11.073 10.4724 11.9006 9.4767 12.4762C8.481 13.0518 7.35134 13.3552 6.20123 13.3559C5.66617 13.3559 5.15304 13.1433 4.77469 12.765C4.3963 12.3866 4.18373 11.8734 4.18373 11.3383C4.18373 10.8032 4.3963 10.29 4.77469 9.91159C5.15307 9.53321 5.66627 9.32063 6.20139 9.32063C6.86911 9.32063 7.50949 9.05538 7.98164 8.58323C8.45379 8.11107 8.71905 7.4707 8.71905 6.80297C8.71905 6.13525 8.45379 5.49487 7.98164 5.02272C7.50961 4.55069 6.86944 4.28545 6.2019 4.28531ZM6.2019 4.28531C6.20206 4.28531 6.20222 4.28532 6.20238 4.28532L6.20139 4.53531V4.28531C6.20156 4.28531 6.20173 4.28531 6.2019 4.28531ZM4.76851 16.7303L4.76885 16.73C4.95642 16.5408 5.17957 16.3907 5.42544 16.2883C5.67131 16.1859 5.93503 16.1331 6.20139 16.1331C6.46774 16.1331 6.73146 16.1859 6.97733 16.2883C7.2232 16.3907 7.44636 16.5408 7.63393 16.73C8.00668 17.1058 8.21682 17.613 8.21905 18.1423L8.21894 18.1423L8.21919 18.1498C8.22824 18.4152 8.17412 18.679 8.06131 18.9195L8.06102 18.9193L8.05623 18.931C7.95855 19.1699 7.81595 19.3878 7.63618 19.5729C7.43854 19.7582 7.21151 19.9095 6.96435 20.0205C6.53429 20.197 6.05643 20.2196 5.61158 20.0844C5.16555 19.9488 4.78022 19.663 4.52108 19.2755C4.26195 18.888 4.145 18.4227 4.1901 17.9587C4.23521 17.4947 4.43959 17.0606 4.76851 16.7303Z" stroke="#74787B" stroke-width="0.5"/>
</svg>
