<svg width="375" height="308" viewBox="0 0 375 308" fill="none" xmlns="http://www.w3.org/2000/svg">
<g clip-path="url(#clip0_142_26)">
<path d="M66.6021 292.135C66.2196 292.153 65.8409 292.052 65.5174 291.847C65.1939 291.642 64.9411 291.343 64.7934 290.99C64.6457 290.637 64.6101 290.246 64.6916 289.872C64.773 289.498 64.9675 289.158 65.2486 288.898L65.3766 288.389C65.3597 288.349 65.3428 288.308 65.3257 288.267C64.9404 287.357 64.2947 286.581 63.4697 286.037C62.6447 285.492 61.6773 285.204 60.6889 285.207C59.7005 285.211 58.7352 285.507 57.9143 286.057C57.0934 286.608 56.4535 287.389 56.0749 288.302C54.5619 291.946 52.6355 295.596 52.1612 299.449C51.9523 301.152 52.0404 302.879 52.4217 304.552C48.868 296.8 47.0227 288.374 47.0108 279.847C47.01 277.707 47.1289 275.568 47.3669 273.442C47.5636 271.698 47.8364 269.967 48.1855 268.249C50.0902 258.924 54.1796 250.184 60.118 242.747C62.9922 241.178 65.3166 238.767 66.778 235.837C67.3074 234.784 67.6816 233.659 67.8888 232.499C67.5646 232.541 66.6664 227.604 66.9109 227.301C66.4591 226.615 65.6503 226.274 65.1569 225.605C62.7026 222.278 59.3213 222.859 57.5561 227.38C53.7853 229.283 53.7488 232.44 56.0625 235.475C57.5346 237.407 57.7369 240.02 59.0284 242.087C58.8955 242.257 58.7573 242.422 58.6245 242.592C56.1954 245.716 54.0783 249.07 52.3035 252.606C52.7351 248.644 52.22 244.637 50.8005 240.913C49.3619 237.442 46.6654 234.519 44.2908 231.519C41.4385 227.915 35.5897 229.488 35.0871 234.056C35.0823 234.101 35.0775 234.145 35.0729 234.189C35.4256 234.388 35.7709 234.599 36.1087 234.823C36.5331 235.106 36.8619 235.511 37.0521 235.985C37.2423 236.459 37.285 236.979 37.1746 237.477C37.0642 237.975 36.8059 238.429 36.4334 238.777C36.061 239.126 35.5918 239.355 35.0874 239.432L35.0357 239.44C35.1614 240.712 35.3834 241.971 35.7001 243.209C32.6538 254.99 39.2306 259.281 48.6213 259.473C48.8286 259.58 49.0306 259.686 49.2379 259.787C47.4548 264.84 46.3363 270.104 45.9106 275.446C45.6696 278.597 45.6838 281.763 45.9531 284.912L45.9371 284.8C45.2567 281.299 43.3887 278.139 40.6485 275.855C36.5786 272.512 30.8286 271.28 26.4379 268.593C25.9713 268.293 25.4288 268.134 24.8742 268.132C24.3197 268.131 23.7764 268.288 23.3083 268.585C22.8402 268.883 22.4669 269.308 22.2324 269.81C21.998 270.313 21.9121 270.872 21.9849 271.422C21.9908 271.461 21.9968 271.5 22.0029 271.539C22.6574 271.806 23.2947 272.113 23.911 272.458C24.2637 272.657 24.609 272.869 24.9468 273.092C25.3711 273.376 25.7 273.781 25.8902 274.254C26.0804 274.728 26.1231 275.248 26.0127 275.746C25.9023 276.245 25.6439 276.698 25.2715 277.047C24.899 277.396 24.4299 277.624 23.9255 277.702L23.8738 277.71C23.8366 277.715 23.8047 277.72 23.7675 277.726C24.8859 280.396 26.4555 282.854 28.4076 284.992C30.3124 295.276 38.4935 296.252 47.2447 293.257H47.25C48.2101 297.429 49.6014 301.491 51.4012 305.375H66.2305C66.2837 305.211 66.3315 305.04 66.3794 304.876C65.0067 304.962 63.6287 304.88 62.276 304.631C63.3762 303.281 64.4765 301.92 65.5768 300.57C65.6013 300.545 65.6244 300.519 65.6459 300.491C66.204 299.8 66.7674 299.114 67.3254 298.423L67.3258 298.422C67.3555 296.304 67.1124 294.191 66.6026 292.135L66.6021 292.135Z" fill="#F2F2F2"/>
<path d="M246.674 155.345H-91.6303C-94.6446 155.341 -97.5346 154.142 -99.666 152.011C-101.798 149.879 -102.997 146.99 -103 143.975V11.3697C-102.997 8.35535 -101.798 5.46545 -99.666 3.33396C-97.5346 1.20248 -94.6446 0.00348239 -91.6303 0H246.674C249.689 0.00348239 252.579 1.20248 254.71 3.33396C256.842 5.46545 258.041 8.35535 258.044 11.3697V143.975C258.041 146.99 256.842 149.879 254.71 152.011C252.579 154.142 249.689 155.341 246.674 155.345Z" fill="#F2F2F2"/>
<path d="M167.774 148.094H-37.9296C-53.2584 148.076 -67.9544 141.979 -78.7935 131.14C-89.6325 120.301 -95.7295 105.605 -95.7468 90.2764V65.0749C-95.7295 49.7461 -89.6326 35.0501 -78.7935 24.2109C-67.9544 13.3718 -53.2584 7.27471 -37.9296 7.25732H192.976C208.304 7.27471 223 13.3718 233.839 24.2109C244.678 35.0501 250.775 49.7461 250.793 65.0749C250.768 87.0852 242.013 108.187 226.45 123.75C210.886 139.314 189.784 148.069 167.774 148.094Z" fill="white"/>
<path d="M114.711 45.2179H-21.2618C-22.0395 45.2179 -22.7854 44.909 -23.3353 44.3591C-23.8852 43.8092 -24.1941 43.0633 -24.1941 42.2856C-24.1941 41.508 -23.8852 40.7621 -23.3353 40.2122C-22.7854 39.6623 -22.0395 39.3534 -21.2618 39.3534H114.711C115.488 39.3534 116.234 39.6623 116.784 40.2122C117.334 40.7621 117.643 41.508 117.643 42.2856C117.643 43.0633 117.334 43.8092 116.784 44.3591C116.234 44.909 115.488 45.2179 114.711 45.2179Z" fill="#E6E6E6"/>
<path d="M183.543 76.5033H-21.2618C-22.0395 76.5033 -22.7854 76.1944 -23.3353 75.6445C-23.8852 75.0946 -24.1941 74.3487 -24.1941 73.571C-24.1941 72.7934 -23.8852 72.0475 -23.3353 71.4976C-22.7854 70.9477 -22.0395 70.6388 -21.2618 70.6388H183.543C184.32 70.6388 185.066 70.9477 185.616 71.4976C186.166 72.0475 186.475 72.7934 186.475 73.571C186.475 74.3487 186.166 75.0946 185.616 75.6445C185.066 76.1944 184.32 76.5033 183.543 76.5033Z" fill="#E6E6E6"/>
<path d="M183.543 107.789H-21.2618C-22.0395 107.789 -22.7854 107.48 -23.3353 106.93C-23.8852 106.38 -24.1941 105.634 -24.1941 104.856C-24.1941 104.079 -23.8852 103.333 -23.3353 102.783C-22.7854 102.233 -22.0395 101.924 -21.2618 101.924H183.543C184.32 101.924 185.066 102.233 185.616 102.783C186.166 103.333 186.475 104.079 186.475 104.856C186.475 105.634 186.166 106.38 185.616 106.93C185.066 107.48 184.32 107.789 183.543 107.789Z" fill="#E6E6E6"/>
<path d="M183.543 107.789H-21.2618C-22.0395 107.789 -22.7854 107.48 -23.3353 106.93C-23.8852 106.38 -24.1941 105.634 -24.1941 104.856C-24.1941 104.079 -23.8852 103.333 -23.3353 102.783C-22.7854 102.233 -22.0395 101.924 -21.2618 101.924H183.543C184.32 101.924 185.066 102.233 185.616 102.783C186.166 103.333 186.475 104.079 186.475 104.856C186.475 105.634 186.166 106.38 185.616 106.93C185.066 107.48 184.32 107.789 183.543 107.789Z" fill="#E6E6E6"/>
<path d="M163.719 53.9754C165.594 43.7566 169.977 34.8097 177.682 27.5476C177.965 27.0131 178.449 26.6126 179.027 26.4342C179.605 26.2558 180.23 26.314 180.765 26.596L200.724 37.1409C201.259 37.4241 201.659 37.9078 201.838 38.4858C202.016 39.0639 201.958 39.6891 201.676 40.2243L187.713 66.6522C187.43 67.1867 186.946 67.5872 186.368 67.7656C185.79 67.944 185.165 67.8858 184.63 67.6038L164.671 57.0589C164.136 56.7757 163.736 56.292 163.557 55.714C163.379 55.1359 163.437 54.5107 163.719 53.9754Z" fill="#E6E6E6"/>
<path d="M169.467 46.802C169.714 41.4679 173.604 35.6968 178.444 29.8118C178.709 29.3112 179.162 28.9362 179.703 28.7691C180.245 28.602 180.83 28.6565 181.332 28.9206L198.484 37.9831C198.985 38.2483 199.36 38.7013 199.527 39.2427C199.694 39.784 199.64 40.3696 199.376 40.8709L186.951 64.388C186.686 64.8887 186.233 65.2637 185.691 65.4308C185.15 65.5978 184.564 65.5433 184.063 65.2792L173.437 59.6652C171.207 58.4838 169.537 56.466 168.792 54.0545C168.048 51.643 168.291 49.0348 169.467 46.802Z" fill="white"/>
<path d="M189.609 50.2053L176.215 43.176C176.003 43.0636 175.844 42.8717 175.773 42.6424C175.702 42.413 175.725 42.1649 175.836 41.9523C175.948 41.7397 176.139 41.58 176.368 41.5081C176.597 41.4362 176.845 41.458 177.058 41.5687L190.453 48.598C190.665 48.7104 190.824 48.9023 190.895 49.1316C190.966 49.361 190.943 49.6091 190.832 49.8217C190.72 50.0343 190.529 50.194 190.3 50.2659C190.071 50.3378 189.822 50.316 189.609 50.2053Z" fill="#FB8574"/>
<path d="M181.475 40.3152L178.528 38.7687C178.422 38.7136 178.328 38.6381 178.251 38.5466C178.174 38.455 178.116 38.3492 178.08 38.2352C178.045 38.1212 178.032 38.0012 178.042 37.8822C178.053 37.7632 178.087 37.6475 178.143 37.5416C178.198 37.4358 178.274 37.342 178.366 37.2656C178.458 37.1892 178.564 37.1317 178.678 37.0964C178.792 37.061 178.912 37.0486 179.031 37.0598C179.15 37.0709 179.266 37.1055 179.371 37.1614L182.318 38.7078C182.53 38.8202 182.689 39.0121 182.76 39.2415C182.831 39.4708 182.808 39.719 182.697 39.9316C182.585 40.1442 182.394 40.3039 182.165 40.3758C181.936 40.4477 181.688 40.4259 181.475 40.3152Z" fill="#FB8574"/>
<path d="M185.901 57.2715L172.507 50.2422C172.294 50.13 172.135 49.9381 172.064 49.7086C171.993 49.4791 172.015 49.2308 172.127 49.0181C172.239 48.8054 172.43 48.6456 172.659 48.5737C172.889 48.5019 173.137 48.5239 173.35 48.6349L186.745 55.6641C186.957 55.7765 187.116 55.9684 187.187 56.1978C187.258 56.4271 187.235 56.6753 187.123 56.8879C187.012 57.1005 186.82 57.2602 186.591 57.3321C186.362 57.404 186.114 57.3822 185.901 57.2715Z" fill="#FB8574"/>
<path d="M187.755 53.7384L174.361 46.7092C174.255 46.6541 174.161 46.5786 174.084 46.487C174.007 46.3954 173.949 46.2896 173.913 46.1756C173.878 46.0616 173.865 45.9416 173.875 45.8226C173.886 45.7036 173.92 45.5879 173.976 45.4821C174.031 45.3763 174.107 45.2825 174.199 45.2061C174.291 45.1297 174.397 45.0721 174.511 45.0368C174.625 45.0015 174.745 44.989 174.864 45.0002C174.983 45.0113 175.099 45.0459 175.204 45.1018L188.599 52.1311C188.811 52.2435 188.97 52.4354 189.041 52.6647C189.112 52.8941 189.089 53.1422 188.978 53.3548C188.866 53.5674 188.675 53.7271 188.446 53.799C188.217 53.8709 187.968 53.8491 187.755 53.7384Z" fill="#FB8574"/>
<path d="M308.046 233.318H301.118C300.79 233.318 300.466 233.382 300.163 233.507C299.86 233.633 299.585 233.817 299.354 234.048C299.122 234.28 298.938 234.555 298.813 234.858C298.688 235.16 298.623 235.485 298.623 235.812C298.623 236.474 298.36 237.109 297.892 237.576C297.424 238.044 296.79 238.307 296.128 238.307H273.03C272.703 238.307 272.378 238.243 272.075 238.117C271.773 237.992 271.498 237.808 271.266 237.576C271.034 237.345 270.851 237.07 270.725 236.767C270.6 236.464 270.535 236.14 270.535 235.812L270.079 233.283L270.108 233.318L270.079 233.283L265.892 227.945C265.755 227.768 265.578 227.624 265.376 227.526C265.175 227.428 264.953 227.378 264.728 227.38H256.876C256.484 227.381 256.109 227.537 255.831 227.814C255.554 228.091 255.398 228.467 255.398 228.859L255.236 233.283H252.267C251.644 233.283 251.026 233.406 250.45 233.645C249.874 233.883 249.351 234.233 248.91 234.674C248.469 235.115 248.12 235.638 247.881 236.214C247.642 236.79 247.52 237.407 247.52 238.031V268.952C247.52 269.506 247.629 270.053 247.84 270.565C248.052 271.076 248.362 271.54 248.754 271.931C249.145 272.323 249.609 272.633 250.12 272.845C250.632 273.056 251.179 273.165 251.733 273.165H308.046C309.163 273.164 310.234 272.72 311.023 271.93C311.813 271.14 312.257 270.069 312.258 268.952V237.53C312.258 236.976 312.149 236.429 311.938 235.918C311.726 235.407 311.416 234.942 311.024 234.551C310.633 234.16 310.169 233.85 309.658 233.638C309.147 233.426 308.599 233.318 308.046 233.318Z" fill="#F2F2F2"/>
<path d="M270.081 233.169H255.398V228.745C255.398 228.353 255.554 227.977 255.831 227.7C256.109 227.423 256.484 227.267 256.876 227.266H264.728C264.953 227.264 265.175 227.314 265.376 227.412C265.578 227.51 265.755 227.654 265.892 227.831L270.081 233.169Z" fill="#E6E6E6"/>
<path d="M277.599 269.763H253.082C252.306 269.762 251.562 269.453 251.013 268.905C250.464 268.356 250.155 267.612 250.155 266.836V260.131C250.155 259.355 250.464 258.611 251.013 258.062C251.562 257.513 252.306 257.204 253.082 257.203H282.508C283.284 257.204 284.028 257.513 284.577 258.062C285.126 258.611 285.434 259.355 285.435 260.131V261.927C285.433 264.004 284.607 265.996 283.138 267.465C281.668 268.934 279.677 269.761 277.599 269.763Z" fill="white"/>
<path d="M260.139 262.261H254.088C253.694 262.261 253.317 262.105 253.038 261.826C252.76 261.548 252.604 261.17 252.604 260.777C252.604 260.383 252.76 260.006 253.038 259.727C253.317 259.449 253.694 259.292 254.088 259.292H260.139C260.533 259.292 260.911 259.449 261.189 259.727C261.467 260.006 261.624 260.383 261.624 260.777C261.624 261.17 261.467 261.548 261.189 261.826C260.911 262.105 260.533 262.261 260.139 262.261Z" fill="#F2F2F2"/>
<path d="M280.691 266.943H254.088C253.893 266.943 253.7 266.905 253.519 266.83C253.339 266.756 253.175 266.647 253.036 266.509C252.898 266.371 252.789 266.207 252.714 266.027C252.639 265.847 252.601 265.653 252.601 265.458C252.601 265.263 252.639 265.07 252.714 264.889C252.789 264.709 252.898 264.545 253.036 264.407C253.175 264.27 253.339 264.16 253.519 264.086C253.7 264.012 253.893 263.973 254.088 263.974H280.691C281.085 263.974 281.463 264.13 281.741 264.409C282.019 264.687 282.176 265.065 282.176 265.458C282.176 265.852 282.019 266.229 281.741 266.508C281.463 266.786 281.085 266.943 280.691 266.943H280.691Z" fill="#F2F2F2"/>
<path d="M332.659 267.243H325.73C325.403 267.243 325.078 267.308 324.776 267.433C324.473 267.558 324.198 267.742 323.966 267.974C323.735 268.205 323.551 268.48 323.425 268.783C323.3 269.086 323.236 269.41 323.236 269.738C323.236 270.399 322.973 271.034 322.505 271.502C322.037 271.97 321.402 272.233 320.741 272.233H297.643C297.315 272.233 296.991 272.168 296.688 272.043C296.385 271.917 296.11 271.734 295.879 271.502C295.647 271.27 295.463 270.995 295.338 270.693C295.212 270.39 295.148 270.065 295.148 269.738L294.691 267.209L294.721 267.243L294.691 267.209L290.504 261.871C290.367 261.693 290.191 261.55 289.989 261.452C289.787 261.354 289.565 261.304 289.341 261.306H281.489C281.097 261.306 280.721 261.462 280.444 261.739C280.167 262.017 280.011 262.392 280.01 262.784L279.848 267.209H276.88C276.256 267.209 275.639 267.332 275.063 267.57C274.487 267.809 273.963 268.159 273.523 268.599C273.082 269.04 272.732 269.564 272.493 270.14C272.255 270.716 272.132 271.333 272.132 271.956V302.878C272.132 303.431 272.241 303.979 272.453 304.49C272.665 305.001 272.975 305.466 273.366 305.857C273.757 306.248 274.222 306.559 274.733 306.77C275.244 306.982 275.792 307.091 276.345 307.091H332.659C333.776 307.09 334.846 306.645 335.636 305.855C336.426 305.066 336.87 303.995 336.871 302.878V271.455C336.871 270.902 336.762 270.354 336.55 269.843C336.338 269.332 336.028 268.868 335.637 268.477C335.246 268.086 334.782 267.775 334.271 267.564C333.759 267.352 333.212 267.243 332.659 267.243Z" fill="#F2F2F2"/>
<path d="M294.694 267.095H280.01V262.67C280.011 262.278 280.167 261.902 280.444 261.625C280.721 261.348 281.097 261.192 281.489 261.192H289.341C289.565 261.19 289.787 261.24 289.989 261.338C290.191 261.436 290.367 261.579 290.504 261.757L294.694 267.095Z" fill="#E6E6E6"/>
<path d="M302.212 303.689H277.695C276.919 303.688 276.174 303.379 275.626 302.83C275.077 302.282 274.768 301.538 274.767 300.761V294.056C274.768 293.28 275.077 292.536 275.626 291.987C276.174 291.439 276.919 291.13 277.695 291.129H307.121C307.897 291.13 308.641 291.439 309.19 291.987C309.739 292.536 310.047 293.28 310.048 294.056V295.852C310.046 297.93 309.219 299.922 307.75 301.391C306.281 302.86 304.289 303.686 302.212 303.689Z" fill="white"/>
<path d="M284.752 296.187H278.701C278.307 296.187 277.929 296.03 277.651 295.752C277.373 295.474 277.216 295.096 277.216 294.702C277.216 294.309 277.373 293.931 277.651 293.653C277.929 293.374 278.307 293.218 278.701 293.218H284.752C285.146 293.218 285.523 293.374 285.802 293.653C286.08 293.931 286.236 294.309 286.236 294.702C286.236 295.096 286.08 295.474 285.802 295.752C285.523 296.03 285.146 296.187 284.752 296.187Z" fill="#F2F2F2"/>
<path d="M305.304 300.868H278.701C278.506 300.868 278.312 300.83 278.132 300.756C277.951 300.682 277.787 300.572 277.649 300.434C277.511 300.297 277.401 300.133 277.327 299.952C277.252 299.772 277.213 299.579 277.213 299.384C277.213 299.189 277.252 298.995 277.327 298.815C277.401 298.635 277.511 298.471 277.649 298.333C277.787 298.195 277.951 298.086 278.132 298.012C278.312 297.937 278.506 297.899 278.701 297.899H305.304C305.698 297.899 306.075 298.056 306.354 298.334C306.632 298.613 306.788 298.99 306.788 299.384C306.788 299.777 306.632 300.155 306.354 300.433C306.075 300.712 305.698 300.868 305.304 300.868H305.304Z" fill="#F2F2F2"/>
<path d="M222.598 295.448L216.877 295.447L214.156 273.382H222.599L222.598 295.448Z" fill="#FFB6B6"/>
<path d="M205.331 303.889C205.333 304.529 205.589 305.143 206.042 305.597C206.494 306.051 207.108 306.307 207.749 306.311H218.518L218.851 305.62L220.375 302.477L220.965 305.62L221.095 306.311H225.157L225.099 305.615L224.016 292.626L222.599 292.539L216.477 292.176L214.973 292.084V295.963C213.832 297.177 204.876 301.766 205.331 303.889Z" fill="#2F2E41"/>
<path d="M317.316 251.264L314.551 256.272L293.917 247.991L297.998 240.599L317.316 251.264Z" fill="#FFB6B6"/>
<path d="M316.361 270.46C316.923 270.767 317.584 270.84 318.2 270.663C318.816 270.486 319.337 270.073 319.65 269.514L324.855 260.086L324.411 259.459L322.395 256.607L325.432 257.609L326.1 257.829L328.063 254.273L327.426 253.987L315.531 248.658L314.77 249.857L311.494 255.041L310.687 256.313L314.082 258.188C314.593 259.773 314.283 269.832 316.361 270.46Z" fill="#2F2E41"/>
<path d="M232.17 150.015L253.786 159.193C253.786 159.193 260.701 173.957 255.919 176.073V215.105L305.292 243.679L290.41 268.537C290.41 268.537 271.308 263.603 271.508 259.099C271.707 254.594 273.909 252.812 267.351 252.234C260.792 251.655 257.077 252.138 257.255 248.118C257.433 244.099 234.091 223.197 234.091 223.197L232.17 150.015Z" fill="#2F2E41"/>
<path d="M237.349 157.508L231.868 151.351C231.868 151.351 219.558 171.564 219.604 175.715C219.65 179.867 209.155 201.278 209.155 201.278L196.141 277.684C196.141 277.684 221.242 283.651 223.175 283.816C225.108 283.981 228.367 284.999 226.318 281.132C224.268 277.264 226.318 277.264 226.318 277.264L227.577 218.437L237.349 177.976V157.508Z" fill="#2F2E41"/>
<path d="M234.474 98.3197L244.97 95.8008L251.039 103.245C253.809 105.851 255.874 109.116 257.042 112.735C258.21 116.354 258.443 120.211 257.72 123.944L252.107 152.895C252.107 152.895 262.182 162.131 260.923 167.169C258.88 175.34 236.352 168.124 232.474 168.696C228.597 169.268 223.559 162.994 222.72 159.414C221.88 155.834 225.305 147.242 226.498 147.438C227.691 147.634 223.206 129.663 223.206 129.663C223.206 129.663 223.559 117.631 227.757 114.273C230.332 112.176 232.427 109.552 233.903 106.577L234.474 98.3197Z" fill="#FB8574"/>
<path d="M188.908 52.9284C188.916 53.6342 189.077 54.3298 189.381 54.9671C189.684 55.6044 190.122 56.1682 190.665 56.6195C191.207 57.0708 191.842 57.3988 192.524 57.5808C193.206 57.7629 193.919 57.7947 194.614 57.674L207.826 78.0574L214.362 75.7894L198.494 51.6944C198.204 50.5389 197.499 49.5301 196.515 48.8591C195.531 48.188 194.334 47.9014 193.153 48.0535C191.971 48.2056 190.886 48.7859 190.104 49.6844C189.322 50.5828 188.896 51.7371 188.908 52.9284H188.908Z" fill="#FFB6B6"/>
<path d="M241.886 123.987C241.886 123.987 246.861 113.335 243.077 108.6C239.293 103.866 236.527 99.0527 234.409 97.749C232.292 96.4453 223.852 81.3491 221.724 80.8982C219.597 80.4474 221.25 78.0001 218.28 76.6866C215.309 75.3731 214.457 75.3633 214.466 74.5105C214.476 73.6576 207.223 63.417 207.223 63.417L199.768 68.0446L217.98 105.3L241.886 123.987Z" fill="#FB8574"/>
<path d="M194.884 223.674C185.347 210.988 179.835 196.802 179.654 180.629C179.347 179.758 179.398 178.8 179.796 177.966C180.194 177.132 180.906 176.49 181.777 176.18L214.285 164.678C215.157 164.371 216.115 164.422 216.949 164.82C217.783 165.218 218.425 165.931 218.734 166.801L233.965 209.846C234.272 210.718 234.221 211.675 233.823 212.509C233.425 213.344 232.712 213.986 231.841 214.295L199.333 225.797C198.461 226.104 197.504 226.053 196.67 225.655C195.836 225.257 195.193 224.545 194.884 223.674Z" fill="#E6E6E6"/>
<path d="M192.778 209.79C187.042 203.99 184.586 193.646 182.986 182.117C182.698 181.301 182.746 180.404 183.119 179.623C183.492 178.842 184.159 178.24 184.975 177.951L212.913 168.065C213.729 167.778 214.626 167.825 215.407 168.198C216.189 168.571 216.79 169.238 217.08 170.054L230.632 208.358C230.92 209.174 230.872 210.071 230.5 210.852C230.127 211.633 229.459 212.235 228.644 212.524L211.337 218.648C207.701 219.93 203.705 219.717 200.226 218.057C196.746 216.396 194.068 213.423 192.778 209.79Z" fill="white"/>
<path d="M217.453 190.689L195.69 198.457C195.344 198.581 194.963 198.561 194.631 198.404C194.298 198.247 194.042 197.963 193.919 197.617C193.795 197.271 193.814 196.89 193.971 196.557C194.129 196.225 194.412 195.969 194.758 195.845L216.521 188.077C216.693 188.016 216.875 187.989 217.056 187.998C217.238 188.007 217.417 188.052 217.581 188.13C217.746 188.208 217.893 188.317 218.015 188.452C218.138 188.587 218.232 188.745 218.293 188.917C218.354 189.088 218.381 189.27 218.372 189.452C218.363 189.634 218.318 189.812 218.24 189.977C218.162 190.141 218.053 190.289 217.918 190.411C217.783 190.533 217.625 190.627 217.453 190.689Z" fill="#FB8574"/>
<path d="M197.922 189.587L193.134 191.296C192.788 191.419 192.408 191.399 192.076 191.241C191.744 191.084 191.489 190.801 191.365 190.455C191.242 190.109 191.26 189.729 191.417 189.397C191.574 189.065 191.856 188.808 192.202 188.684L196.99 186.975C197.336 186.853 197.717 186.872 198.048 187.03C198.38 187.187 198.636 187.47 198.759 187.816C198.882 188.162 198.864 188.542 198.707 188.874C198.55 189.206 198.268 189.463 197.922 189.587Z" fill="#FB8574"/>
<path d="M221.552 202.17L199.789 209.938C199.617 209.999 199.435 210.026 199.253 210.017C199.072 210.008 198.893 209.963 198.729 209.885C198.564 209.807 198.417 209.697 198.294 209.562C198.172 209.427 198.078 209.27 198.017 209.098C197.956 208.927 197.929 208.745 197.938 208.563C197.947 208.381 197.992 208.203 198.07 208.038C198.148 207.874 198.257 207.726 198.392 207.604C198.527 207.482 198.685 207.388 198.856 207.326L220.619 199.558C220.791 199.497 220.973 199.47 221.155 199.479C221.336 199.488 221.515 199.533 221.679 199.611C221.844 199.689 221.991 199.798 222.114 199.933C222.236 200.068 222.33 200.226 222.391 200.398C222.452 200.569 222.479 200.751 222.47 200.933C222.461 201.115 222.416 201.293 222.338 201.458C222.26 201.622 222.151 201.77 222.016 201.892C221.881 202.014 221.723 202.108 221.552 202.17Z" fill="#FB8574"/>
<path d="M219.503 196.429L197.74 204.197C197.568 204.259 197.386 204.285 197.204 204.276C197.023 204.267 196.844 204.222 196.68 204.145C196.515 204.067 196.368 203.957 196.245 203.822C196.123 203.687 196.029 203.529 195.968 203.358C195.906 203.186 195.88 203.004 195.889 202.822C195.898 202.641 195.943 202.462 196.021 202.298C196.098 202.133 196.208 201.986 196.343 201.864C196.478 201.741 196.636 201.647 196.807 201.586L218.57 193.818C218.917 193.694 219.298 193.713 219.63 193.87C219.962 194.028 220.219 194.311 220.342 194.657C220.466 195.004 220.447 195.385 220.289 195.717C220.132 196.049 219.849 196.305 219.503 196.429Z" fill="#FB8574"/>
<path d="M235.747 94.5237C241.97 94.5237 247.015 89.4788 247.015 83.2556C247.015 77.0324 241.97 71.9874 235.747 71.9874C229.524 71.9874 224.479 77.0324 224.479 83.2556C224.479 89.4788 229.524 94.5237 235.747 94.5237Z" fill="#FFB6B6"/>
<path d="M223.898 81.7851C224.497 82.1839 225.21 82.3743 225.927 82.327C226.093 81.4645 226.119 80.5811 226.006 79.7102C226.433 80.4918 226.754 81.3266 226.962 82.1928C228.965 81.7554 228.877 81.1594 230.941 81.4712C231.508 81.5908 232.045 81.8258 232.517 82.1616C232.99 82.4974 233.388 82.9269 233.687 83.4233C233.987 83.9196 234.181 84.4723 234.257 85.0468C234.334 85.6214 234.291 86.2056 234.132 86.763C234.57 85.8053 236.387 86.2406 236.693 87.3365C237.013 88.4899 236.309 89.6556 235.636 90.6455C233.231 94.1838 239.45 100.706 237.046 104.244L236.711 104.644C238.813 103.55 240.803 102.251 242.649 100.765C242.334 99.3676 242.279 97.9235 242.488 96.5059C242.749 97.6737 243.388 98.7226 244.307 99.4898C251.11 94.1548 259.295 86.4745 257.79 84.6106L253.21 76.5377C248.397 68.0574 236.788 64.6508 229.596 71.2357C229.408 71.4112 228.983 71.2948 228.793 71.4797C226.727 72.0151 224.082 72.9851 222.732 74.6367C221.387 76.2911 222.132 80.5927 223.898 81.7851Z" fill="#2F2E41"/>
<path d="M232.714 169.046C223.546 164.158 216.351 157.267 211.77 147.721C211.347 147.289 211.112 146.707 211.118 146.102C211.123 145.497 211.368 144.919 211.8 144.494L227.905 128.678C228.337 128.254 228.919 128.019 229.524 128.025C230.129 128.03 230.707 128.276 231.132 128.707L252.075 150.032C252.498 150.464 252.733 151.046 252.728 151.651C252.722 152.256 252.477 152.834 252.046 153.259L235.941 169.076C235.508 169.499 234.926 169.734 234.321 169.728C233.716 169.723 233.138 169.477 232.714 169.046Z" fill="#E6E6E6"/>
<path d="M227.624 161.392C222.616 159.538 218.298 154.08 214.159 147.682C213.763 147.278 213.543 146.732 213.548 146.166C213.553 145.599 213.783 145.058 214.186 144.66L228.028 131.067C228.432 130.671 228.978 130.451 229.544 130.456C230.111 130.461 230.652 130.691 231.05 131.094L249.686 150.071C250.083 150.475 250.303 151.021 250.298 151.587C250.293 152.154 250.063 152.695 249.659 153.093L241.085 161.514C239.282 163.28 236.853 164.259 234.329 164.236C231.805 164.214 229.394 163.191 227.624 161.392Z" fill="white"/>
<path d="M236.98 143.233L226.217 153.862C226.132 153.946 226.031 154.012 225.921 154.057C225.81 154.102 225.692 154.125 225.573 154.124C225.454 154.124 225.336 154.1 225.226 154.053C225.116 154.007 225.016 153.939 224.933 153.855C224.849 153.77 224.783 153.669 224.738 153.559C224.693 153.448 224.67 153.33 224.671 153.211C224.672 153.092 224.696 152.974 224.742 152.864C224.789 152.754 224.856 152.655 224.941 152.571L235.704 141.942C235.789 141.858 235.889 141.792 236 141.747C236.11 141.702 236.228 141.679 236.348 141.68C236.467 141.68 236.585 141.704 236.695 141.751C236.804 141.797 236.904 141.865 236.988 141.949C237.072 142.034 237.138 142.135 237.183 142.245C237.228 142.356 237.25 142.474 237.25 142.593C237.249 142.712 237.225 142.83 237.178 142.94C237.132 143.05 237.064 143.15 236.98 143.233Z" fill="#FB8574"/>
<path d="M225.087 147.982L222.719 150.321C222.548 150.49 222.316 150.584 222.076 150.583C221.835 150.581 221.605 150.484 221.435 150.313C221.266 150.142 221.172 149.91 221.174 149.669C221.175 149.429 221.272 149.198 221.443 149.029L223.811 146.691C223.896 146.607 223.997 146.54 224.107 146.495C224.218 146.45 224.336 146.427 224.455 146.428C224.575 146.428 224.693 146.452 224.803 146.499C224.913 146.545 225.012 146.613 225.096 146.697C225.18 146.782 225.247 146.883 225.291 146.994C225.336 147.104 225.359 147.223 225.358 147.342C225.357 147.461 225.333 147.579 225.286 147.689C225.24 147.799 225.172 147.899 225.087 147.982Z" fill="#FB8574"/>
<path d="M242.587 148.911L231.824 159.54C231.739 159.624 231.639 159.69 231.528 159.735C231.418 159.78 231.3 159.803 231.18 159.802C231.061 159.802 230.943 159.778 230.833 159.731C230.724 159.685 230.624 159.617 230.54 159.533C230.456 159.448 230.39 159.347 230.345 159.237C230.3 159.126 230.278 159.008 230.278 158.889C230.279 158.77 230.303 158.652 230.35 158.542C230.396 158.432 230.464 158.333 230.548 158.249L241.311 147.62C241.396 147.536 241.497 147.47 241.607 147.425C241.718 147.38 241.836 147.357 241.955 147.358C242.074 147.358 242.192 147.382 242.302 147.429C242.412 147.475 242.512 147.543 242.595 147.627C242.679 147.712 242.745 147.813 242.79 147.923C242.835 148.034 242.858 148.152 242.857 148.271C242.856 148.39 242.832 148.508 242.786 148.618C242.739 148.728 242.672 148.828 242.587 148.911Z" fill="#FB8574"/>
<path d="M239.783 146.072L229.02 156.701C228.935 156.785 228.835 156.852 228.725 156.897C228.614 156.942 228.496 156.965 228.376 156.965C228.257 156.964 228.139 156.94 228.029 156.894C227.919 156.847 227.819 156.78 227.735 156.695C227.651 156.61 227.585 156.509 227.54 156.399C227.495 156.288 227.473 156.17 227.473 156.05C227.474 155.931 227.499 155.813 227.545 155.703C227.592 155.593 227.66 155.493 227.745 155.41L238.508 144.781C238.679 144.612 238.91 144.518 239.151 144.519C239.392 144.521 239.622 144.618 239.791 144.789C239.96 144.96 240.054 145.192 240.053 145.432C240.051 145.673 239.954 145.903 239.783 146.072V146.072Z" fill="#FB8574"/>
<path d="M216.71 191.133C216.576 190.44 216.595 189.726 216.764 189.041C216.934 188.356 217.25 187.715 217.691 187.164C218.132 186.613 218.688 186.165 219.319 185.85C219.951 185.535 220.644 185.361 221.349 185.339L230.204 162.721L237.063 163.632L226.349 190.419C226.296 191.61 225.809 192.739 224.979 193.594C224.149 194.449 223.034 194.97 221.846 195.057C220.658 195.145 219.479 194.795 218.532 194.071C217.586 193.348 216.937 192.302 216.71 191.133Z" fill="#FFB6B6"/>
<path d="M254.362 110.894C254.362 110.894 261.372 120.332 258.614 125.729C255.857 131.126 254.112 136.396 252.299 138.098C250.486 139.8 245.244 156.282 243.251 157.15C241.257 158.019 243.367 160.085 240.721 161.967C238.074 163.85 237.241 164.03 237.421 164.864C237.602 165.697 232.55 177.184 232.55 177.184L224.318 174.146L241.847 113.174L254.362 110.894Z" fill="#FB8574"/>
<path d="M62.6253 132.63C57.4047 123.648 54.9164 114.001 56.0473 103.473C55.9149 102.883 56.022 102.264 56.3451 101.753C56.6682 101.242 57.1811 100.879 57.771 100.745L79.7908 95.7776C80.3811 95.6451 80.9998 95.7522 81.5113 96.0754C82.0227 96.3985 82.3851 96.9113 82.5189 97.5013L89.0968 126.658C89.2293 127.248 89.1222 127.867 88.7991 128.378C88.4759 128.89 87.9631 129.252 87.3731 129.386L65.3533 134.354C64.763 134.486 64.1443 134.379 63.6329 134.056C63.1215 133.733 62.7591 133.22 62.6253 132.63Z" fill="#E6E6E6"/>
<path d="M62.3277 123.443C59.0466 119.23 58.249 112.316 58.0988 104.698C57.9747 104.145 58.075 103.566 58.3777 103.087C58.6803 102.608 59.1606 102.268 59.7131 102.143L78.6373 97.8736C79.1901 97.7495 79.7696 97.8498 80.2486 98.1524C80.7276 98.4551 81.0669 98.9353 81.1923 99.4879L87.0458 125.433C87.1698 125.986 87.0695 126.566 86.7668 127.045C86.4642 127.524 85.9839 127.863 85.4313 127.988L73.7082 130.633C71.2458 131.186 68.6646 130.739 66.5311 129.391C64.3976 128.043 62.8859 125.904 62.3277 123.443Z" fill="white"/>
<path d="M69.6886 109.121C70.0741 108.676 70.5932 108.368 71.1683 108.243C71.7433 108.117 72.3436 108.181 72.8792 108.425C73.4148 108.71 73.8435 109.16 74.101 109.709C74.3585 110.258 74.4309 110.876 74.3071 111.47C74.0996 112.842 73.3828 114.091 73.3177 115.497C73.2592 116.112 73.3666 116.732 73.6288 117.292C73.891 117.852 74.2985 118.331 74.8088 118.68C75.5902 119.155 76.3944 117.98 75.6093 117.503C74.3173 116.718 74.7515 114.993 75.1262 113.816C75.5942 112.347 76.0818 110.85 75.5029 109.336C75.2467 108.702 74.8356 108.143 74.3073 107.709C73.7789 107.275 73.1503 106.98 72.4788 106.852C71.8072 106.724 71.1143 106.766 70.4633 106.975C69.8124 107.184 69.2242 107.553 68.7525 108.048C68.136 108.712 69.0644 109.794 69.6886 109.121Z" fill="#FB8574"/>
<path d="M75.9602 122.784C76.7466 122.784 77.384 122.146 77.384 121.36C77.384 120.573 76.7466 119.936 75.9602 119.936C75.1739 119.936 74.5364 120.573 74.5364 121.36C74.5364 122.146 75.1739 122.784 75.9602 122.784Z" fill="#FB8574"/>
</g>
<defs>
<clipPath id="clip0_142_26">
<rect width="489.645" height="307.098" fill="white" transform="translate(-103)"/>
</clipPath>
</defs>
</svg>
