<svg width="247" height="183" viewBox="0 0 247 183" fill="none" xmlns="http://www.w3.org/2000/svg">
<path d="M17.8857 73.4395H24.917L45.8789 38.9424L53.6572 73.4395H60.8203L96.8115 2.16016H75.3662L60.2051 34.5039L53.042 2.29199H51.1523L31.4209 34.5918L28.7402 2.16016H9.58008L17.8857 73.4395ZM144.624 19.6504L148.052 2.16016H103.931L90.1758 73H134.297L137.725 55.3779H112.808L114.785 45.2266H134.956L137.988 29.5381H117.817L119.751 19.6504H144.624ZM158.201 55.334L168.485 2.16016H149.149L135.394 73H179.779L183.206 55.334H158.201ZM214.722 55.334L225.005 2.16016H205.669L191.914 73H236.299L239.727 55.334H214.722Z" fill="white"/>
<path d="M37.0244 181.182C55.3398 181.182 67.5859 171.567 70.2178 157.28C72.5811 144.497 65.4912 136.011 54.4268 129.404C48.4648 125.859 41.2139 122.69 42.0732 118.232C42.5566 115.547 45.3496 113.13 49.4316 113.13C54.373 113.13 58.9922 116.03 61.0869 120.273L76.3945 107.168C72.8496 98.4668 62.8057 92.1289 50.9355 92.1289C35.8428 92.1289 22.415 101.313 19.7295 114.258C17.1514 126.611 23.9727 135.366 34.2314 141.65C40.8916 145.732 47.9277 149.707 46.8535 154.917C46.0479 158.838 41.375 160.234 38.2598 160.234C31.8682 160.234 25.96 156.313 22.4688 150.352L6.83887 163.94C11.1895 173.823 21.502 181.182 37.0244 181.182ZM116.86 182.417C136.465 182.417 152.148 169.58 156.606 146.646L166.919 93.418H143.447L133.135 146.592C131.792 153.521 127.925 160.449 120.298 160.449C113.584 160.449 109.502 155.024 111.113 146.592L121.426 93.418H97.9541L87.5879 146.646C83.8281 166.143 95 182.417 116.86 182.417ZM170.002 180H193.474L198.469 154.487H204.753C226.667 154.487 240.954 142.886 243.586 124.57C246.379 105.127 233.757 93.418 216.623 93.418H186.813L170.002 180ZM208.889 133.325L202.551 133.271L206.203 114.634H212.487C218.825 114.634 222.585 118.555 221.672 124.409C220.759 129.888 216.408 133.379 208.889 133.325Z" fill="white"/>
</svg>
